<?xml version="1.0" encoding="iso-8859-1"?>
<!-- Generator: Adobe Illustrator 19.2.1, SVG Export Plug-In . SVG Version: 6.00 Build 0)  -->
<svg version="1.1" id="Layer_1" xmlns="http://www.w3.org/2000/svg" xmlns:xlink="http://www.w3.org/1999/xlink" x="0px" y="0px"
	 viewBox="0 0 240 240" style="enable-background:new 0 0 240 240;" xml:space="preserve">
<g>
	<g>
		<polygon style="fill-rule:evenodd;clip-rule:evenodd;fill:#BDBDBD;" points="20.721,119.974 120,51.592 219.283,119.977 
			119.918,188.409 		"/>
	</g>
	<g>
		<path style="fill:#1D1D1D;" d="M120.001,56.449l92.231,63.527l-92.312,63.574l-92.152-63.574L120.001,56.449 M120.001,46.735
			l-4.538,3.126L23.23,113.388l-9.558,6.583l9.553,6.59l92.152,63.574l4.539,3.131l4.541-3.128l92.311-63.574l9.566-6.588
			l-9.566-6.589l-92.231-63.527L120.001,46.735L120.001,46.735z"/>
	</g>
</g>
<rect style="fill-rule:evenodd;clip-rule:evenodd;fill:none;" width="240" height="240"/>
<g>
	<path style="fill:#1D1D1D;" d="M120.001,56.449l92.231,63.527l-92.312,63.574l-92.152-63.574L120.001,56.449 M120.001,46.735
		l-4.538,3.126L23.23,113.388l-9.558,6.583l9.553,6.59l92.152,63.574l4.539,3.131l4.541-3.128l92.311-63.574l9.566-6.588
		l-9.566-6.589l-92.231-63.527L120.001,46.735L120.001,46.735z"/>
</g>
<g>
	
		<line style="fill-rule:evenodd;clip-rule:evenodd;fill:none;stroke:#1D1D1D;stroke-width:8;stroke-miterlimit:10;" x1="70.979" y1="85.89" x2="169.021" y2="154.11"/>
	
		<line style="fill-rule:evenodd;clip-rule:evenodd;fill:none;stroke:#1D1D1D;stroke-width:8;stroke-miterlimit:10;" x1="169.324" y1="86.328" x2="70.677" y2="153.672"/>
</g>
</svg>
